<svg xmlns="http://www.w3.org/2000/svg" version="1.1" xmlns:xlink="http://www.w3.org/1999/xlink" xmlns:svgjs="http://svgjs.dev/svgjs" viewBox="0 0 23.110901481058495 11.456499003802719"><g transform="matrix(1,0,0,1,1.3392394063007327,8.067631997501987)"><g><path d=" M 6.175716500244139 0.4328249999999999 Q 6.140493500244139 0.4955099999999999 6.069450500244139 0.533121 Q 5.99840750024414 0.5707319999999999 5.895723500244139 0.5707319999999999 L 5.779905500244139 0.5707319999999999 L 5.779905500244139 0.8549039999999999 L 5.545881500244139 0.8549039999999999 L 5.545881500244139 0.013133999999999868 L 5.895723500244139 0.013133999999999868 Q 5.997213500244139 0.013133999999999868 6.068256500244139 0.04895399999999994 Q 6.139299500244139 0.0847739999999999 6.175119500244139 0.14805599999999985 Q 6.210939500244139 0.21133799999999991 6.210939500244139 0.2937239999999999 Q 6.210939500244139 0.3701399999999999 6.175716500244139 0.4328249999999999 M 5.972139500244139 0.2937239999999999 Q 5.972139500244139 0.2017859999999999 5.8730375002441395 0.2017859999999999 L 5.779905500244139 0.2017859999999999 L 5.779905500244139 0.3844679999999999 L 5.8730375002441395 0.3844679999999999 Q 5.972139500244139 0.3844679999999999 5.972139500244139 0.2937239999999999 M 6.317786176025389 0.8304269999999999 Q 6.280175176025389 0.7963979999999999 6.280175176025389 0.7438619999999999 Q 6.280175176025389 0.6913259999999999 6.317786176025389 0.6566999999999998 Q 6.355397176025389 0.6220739999999999 6.417485176025389 0.6220739999999999 Q 6.478379176025389 0.6220739999999999 6.515990176025389 0.6566999999999998 Q 6.553601176025389 0.6913259999999999 6.553601176025389 0.7438619999999999 Q 6.553601176025389 0.7952039999999999 6.515990176025389 0.8298299999999998 Q 6.478379176025389 0.8644559999999999 6.417485176025389 0.8644559999999999 Q 6.355397176025389 0.8644559999999999 6.317786176025389 0.8304269999999999 M 6.896309492431639 0.6758039999999998 L 7.15779549243164 0.6758039999999998 L 7.15779549243164 0.8549039999999999 L 6.662285492431639 0.8549039999999999 L 6.662285492431639 0.013133999999999868 L 6.896309492431639 0.013133999999999868 L 6.896309492431639 0.6758039999999998 M 7.2611097238769515 0.8304269999999999 Q 7.2234987238769515 0.7963979999999999 7.2234987238769515 0.7438619999999999 Q 7.2234987238769515 0.6913259999999999 7.2611097238769515 0.6566999999999998 Q 7.298720723876952 0.6220739999999999 7.360808723876952 0.6220739999999999 Q 7.421702723876952 0.6220739999999999 7.459313723876952 0.6566999999999998 Q 7.496924723876952 0.6913259999999999 7.496924723876952 0.7438619999999999 Q 7.496924723876952 0.7952039999999999 7.459313723876952 0.8298299999999998 Q 7.421702723876952 0.8644559999999999 7.360808723876952 0.8644559999999999 Q 7.298720723876952 0.8644559999999999 7.2611097238769515 0.8304269999999999 M 8.424693040283202 0.013133999999999868 L 8.134551040283203 0.8549039999999999 L 7.834857040283202 0.8549039999999999 L 7.543521040283202 0.013133999999999868 L 7.794261040283202 0.013133999999999868 L 7.985301040283202 0.6208799999999999 L 8.175147040283202 0.013133999999999868 L 8.424693040283202 0.013133999999999868 M 8.51007511743164 0.8304269999999999 Q 8.47246411743164 0.7963979999999999 8.47246411743164 0.7438619999999999 Q 8.47246411743164 0.6913259999999999 8.51007511743164 0.6566999999999998 Q 8.54768611743164 0.6220739999999999 8.60977411743164 0.6220739999999999 Q 8.670668117431639 0.6220739999999999 8.708279117431639 0.6566999999999998 Q 8.745890117431639 0.6913259999999999 8.745890117431639 0.7438619999999999 Q 8.745890117431639 0.7952039999999999 8.708279117431639 0.8298299999999998 Q 8.670668117431639 0.8644559999999999 8.60977411743164 0.8644559999999999 Q 8.54768611743164 0.8644559999999999 8.51007511743164 0.8304269999999999 M 9.104692364501952 0.21074099999999996 Q 9.156631364501953 0.11342999999999992 9.252151364501952 0.059102999999999906 Q 9.347671364501952 0.0047759999999998914 9.471847364501953 0.0047759999999998914 Q 9.629455364501952 0.0047759999999998914 9.736915364501952 0.08895299999999995 Q 9.844375364501952 0.1731299999999999 9.875419364501953 0.3176039999999999 L 9.623485364501953 0.3176039999999999 Q 9.600799364501952 0.26984399999999986 9.560800364501953 0.24476999999999993 Q 9.520801364501953 0.2196959999999999 9.468265364501953 0.2196959999999999 Q 9.387073364501951 0.2196959999999999 9.338716364501952 0.2776049999999999 Q 9.290359364501953 0.33551399999999987 9.290359364501953 0.4322279999999999 Q 9.290359364501953 0.5301359999999999 9.338716364501952 0.5880449999999999 Q 9.387073364501951 0.6459539999999999 9.468265364501953 0.6459539999999999 Q 9.520801364501953 0.6459539999999999 9.560800364501953 0.6208799999999999 Q 9.600799364501952 0.5958059999999998 9.623485364501953 0.5480459999999999 L 9.875419364501953 0.5480459999999999 Q 9.844375364501952 0.6925199999999999 9.736915364501952 0.7766969999999999 Q 9.629455364501952 0.8608739999999999 9.471847364501953 0.8608739999999999 Q 9.347671364501952 0.8608739999999999 9.252151364501952 0.8065469999999999 Q 9.156631364501953 0.7522199999999999 9.104692364501952 0.6549089999999999 Q 9.052753364501951 0.5575979999999998 9.052753364501951 0.4322279999999999 Q 9.052753364501951 0.3080519999999999 9.104692364501952 0.21074099999999996 M 10.17152611743164 0.8077409999999999 Q 10.07242411743164 0.7522199999999999 10.014515117431639 0.6537149999999998 Q 9.956606117431638 0.5552099999999999 9.956606117431638 0.4310339999999999 Q 9.956606117431638 0.30685799999999985 10.014515117431639 0.2083529999999999 Q 10.07242411743164 0.10984799999999995 10.17152611743164 0.05492399999999986 Q 10.27062811743164 -1.1102230246251565e-16 10.388834117431639 -1.1102230246251565e-16 Q 10.50823411743164 -1.1102230246251565e-16 10.606739117431639 0.05492399999999986 Q 10.70524411743164 0.10984799999999995 10.76255611743164 0.2083529999999999 Q 10.81986811743164 0.30685799999999985 10.81986811743164 0.4310339999999999 Q 10.81986811743164 0.5552099999999999 10.76255611743164 0.6537149999999998 Q 10.70524411743164 0.7522199999999999 10.60614211743164 0.8077409999999999 Q 10.50704011743164 0.8632619999999999 10.388834117431639 0.8632619999999999 Q 10.27062811743164 0.8632619999999999 10.17152611743164 0.8077409999999999 M 10.530323117431639 0.587448 Q 10.58226211743164 0.5289419999999999 10.58226211743164 0.4310339999999999 Q 10.58226211743164 0.33073799999999987 10.530323117431639 0.2728289999999999 Q 10.47838411743164 0.2149199999999999 10.388834117431639 0.2149199999999999 Q 10.29809011743164 0.2149199999999999 10.24674811743164 0.2728289999999999 Q 10.19540611743164 0.33073799999999987 10.19540611743164 0.4310339999999999 Q 10.19540611743164 0.5301359999999999 10.24674811743164 0.5880449999999999 Q 10.29809011743164 0.6459539999999999 10.388834117431639 0.6459539999999999 Q 10.47838411743164 0.6459539999999999 10.530323117431639 0.587448 M 11.906392959228514 0.013133999999999868 L 11.906392959228514 0.8549039999999999 L 11.672368959228514 0.8549039999999999 L 11.672368959228514 0.3904379999999999 L 11.513566959228514 0.8549039999999999 L 11.317750959228514 0.8549039999999999 L 11.157754959228514 0.3868559999999999 L 11.157754959228514 0.8549039999999999 L 10.923730959228514 0.8549039999999999 L 10.923730959228514 0.013133999999999868 L 11.206708959228514 0.013133999999999868 L 11.418046959228514 0.5599859999999999 L 11.624608959228514 0.013133999999999868 L 11.906392959228514 0.013133999999999868 M 12.831117974853514 0.06626699999999985 Q 12.930816974853514 0.11939999999999995 12.984546974853515 0.2149199999999999 Q 13.038276974853515 0.31043999999999994 13.038276974853515 0.4334219999999999 Q 13.038276974853515 0.5552099999999999 12.983949974853514 0.6507299999999999 Q 12.929622974853514 0.7462499999999999 12.829923974853514 0.8005769999999999 Q 12.730224974853515 0.8549039999999999 12.598884974853515 0.8549039999999999 L 12.265758974853515 0.8549039999999999 L 12.265758974853515 0.013133999999999868 L 12.598884974853515 0.013133999999999868 Q 12.731418974853515 0.013133999999999868 12.831117974853514 0.06626699999999985 M 12.742164974853514 0.5922239999999999 Q 12.800670974853514 0.536106 12.800670974853514 0.4334219999999999 Q 12.800670974853514 0.32954399999999995 12.742164974853514 0.2728289999999999 Q 12.683658974853515 0.21611399999999992 12.580974974853515 0.21611399999999992 L 12.499782974853515 0.21611399999999992 L 12.499782974853515 0.6483419999999999 L 12.580974974853515 0.6483419999999999 Q 12.683658974853515 0.6483419999999999 12.742164974853514 0.5922239999999999 M 13.328401484619139 0.8077409999999999 Q 13.229299484619139 0.7522199999999999 13.171390484619138 0.6537149999999998 Q 13.113481484619138 0.5552099999999999 13.113481484619138 0.4310339999999999 Q 13.113481484619138 0.30685799999999985 13.171390484619138 0.2083529999999999 Q 13.229299484619139 0.10984799999999995 13.328401484619139 0.05492399999999986 Q 13.42750348461914 -1.1102230246251565e-16 13.545709484619138 -1.1102230246251565e-16 Q 13.665109484619139 -1.1102230246251565e-16 13.763614484619138 0.05492399999999986 Q 13.86211948461914 0.10984799999999995 13.919431484619139 0.2083529999999999 Q 13.976743484619139 0.30685799999999985 13.976743484619139 0.4310339999999999 Q 13.976743484619139 0.5552099999999999 13.919431484619139 0.6537149999999998 Q 13.86211948461914 0.7522199999999999 13.763017484619139 0.8077409999999999 Q 13.663915484619139 0.8632619999999999 13.545709484619138 0.8632619999999999 Q 13.42750348461914 0.8632619999999999 13.328401484619139 0.8077409999999999 M 13.687198484619138 0.587448 Q 13.739137484619139 0.5289419999999999 13.739137484619139 0.4310339999999999 Q 13.739137484619139 0.33073799999999987 13.687198484619138 0.2728289999999999 Q 13.635259484619139 0.2149199999999999 13.545709484619138 0.2149199999999999 Q 13.454965484619139 0.2149199999999999 13.403623484619139 0.2728289999999999 Q 13.352281484619139 0.33073799999999987 13.352281484619139 0.4310339999999999 Q 13.352281484619139 0.5301359999999999 13.403623484619139 0.5880449999999999 Q 13.454965484619139 0.6459539999999999 13.545709484619138 0.6459539999999999 Q 13.635259484619139 0.6459539999999999 13.687198484619138 0.587448 M 14.266870326416013 0.8077409999999999 Q 14.167768326416013 0.7522199999999999 14.109859326416013 0.6537149999999998 Q 14.051950326416012 0.5552099999999999 14.051950326416012 0.4310339999999999 Q 14.051950326416012 0.30685799999999985 14.109859326416013 0.2083529999999999 Q 14.167768326416013 0.10984799999999995 14.266870326416013 0.05492399999999986 Q 14.365972326416014 -1.1102230246251565e-16 14.484178326416012 -1.1102230246251565e-16 Q 14.603578326416013 -1.1102230246251565e-16 14.702083326416012 0.05492399999999986 Q 14.800588326416014 0.10984799999999995 14.857900326416013 0.2083529999999999 Q 14.915212326416013 0.30685799999999985 14.915212326416013 0.4310339999999999 Q 14.915212326416013 0.5552099999999999 14.857900326416013 0.6537149999999998 Q 14.800588326416014 0.7522199999999999 14.701486326416013 0.8077409999999999 Q 14.602384326416013 0.8632619999999999 14.484178326416012 0.8632619999999999 Q 14.365972326416014 0.8632619999999999 14.266870326416013 0.8077409999999999 M 14.625667326416012 0.587448 Q 14.677606326416013 0.5289419999999999 14.677606326416013 0.4310339999999999 Q 14.677606326416013 0.33073799999999987 14.625667326416012 0.2728289999999999 Q 14.573728326416013 0.2149199999999999 14.484178326416012 0.2149199999999999 Q 14.393434326416013 0.2149199999999999 14.342092326416013 0.2728289999999999 Q 14.290750326416013 0.33073799999999987 14.290750326416013 0.4310339999999999 Q 14.290750326416013 0.5301359999999999 14.342092326416013 0.5880449999999999 Q 14.393434326416013 0.6459539999999999 14.484178326416012 0.6459539999999999 Q 14.573728326416013 0.6459539999999999 14.625667326416012 0.587448" fill="#ebebeb" fill-rule="nonzero"></path></g><g><path d=" M 0.2100495 1.4104641 L 0.2100495 2.0433171 L 0.055893 2.0433171 L 0.055893 1.4104641 L 0.2100495 1.4104641 M 0.48589309350585935 1.9171071 L 0.7581460935058593 1.9171071 L 0.7581460935058593 2.0433171 L 0.31100209350585933 2.0433171 L 0.31100209350585933 1.9261221 L 0.5814520935058594 1.5366741 L 0.31100209350585933 1.5366741 L 0.31100209350585933 1.4104641 L 0.7581460935058593 1.4104641 L 0.7581460935058593 1.5276591 L 0.48589309350585935 1.9171071 M 1.4532100766601561 1.4104641 L 1.2287365766601561 2.0433171 L 1.035815576660156 2.0433171 L 0.8113420766601561 1.4104641 L 0.9754150766601561 1.4104641 L 1.132276076660156 1.8882591 L 1.290038576660156 1.4104641 L 1.4532100766601561 1.4104641 M 1.652874719238281 2.0081586 Q 1.578500969238281 1.9666895999999998 1.534778219238281 1.89231585 Q 1.4910554692382811 1.8179420999999998 1.4910554692382811 1.7250876 Q 1.4910554692382811 1.6322330999999999 1.534778219238281 1.5583101 Q 1.578500969238281 1.4843871 1.652874719238281 1.4429181 Q 1.727248469238281 1.4014490999999998 1.816496969238281 1.4014490999999998 Q 1.9057454692382811 1.4014490999999998 1.980119219238281 1.4429181 Q 2.054492969238281 1.4843871 2.0973142192382808 1.5583101 Q 2.140135469238281 1.6322330999999999 2.140135469238281 1.7250876 Q 2.140135469238281 1.8179420999999998 2.096863469238281 1.89231585 Q 2.053591469238281 1.9666895999999998 1.9796684692382809 2.0081586 Q 1.9057454692382811 2.0496276 1.816496969238281 2.0496276 Q 1.727248469238281 2.0496276 1.652874719238281 2.0081586 M 1.937748719238281 1.8585095999999999 Q 1.9832744692382809 1.8080256 1.9832744692382809 1.7250876 Q 1.9832744692382809 1.6412480999999999 1.937748719238281 1.5912148499999998 Q 1.892222969238281 1.5411815999999998 1.816496969238281 1.5411815999999998 Q 1.739869469238281 1.5411815999999998 1.694343719238281 1.5907641 Q 1.648817969238281 1.6403466 1.648817969238281 1.7250876 Q 1.648817969238281 1.8089271 1.694343719238281 1.8589603499999998 Q 1.739869469238281 1.9089935999999998 1.816496969238281 1.9089935999999998 Q 1.892222969238281 1.9089935999999998 1.937748719238281 1.8585095999999999 M 2.389860653320312 1.9171071 L 2.6621136533203122 1.9171071 L 2.6621136533203122 2.0433171 L 2.2149696533203125 2.0433171 L 2.2149696533203125 1.9261221 L 2.4854196533203123 1.5366741 L 2.2149696533203125 1.5366741 L 2.2149696533203125 1.4104641 L 2.6621136533203122 1.4104641 L 2.6621136533203122 1.5276591 L 2.389860653320312 1.9171071 M 3.1083411870117184 1.4104641 L 3.1083411870117184 2.0433171 L 2.9541846870117188 2.0433171 L 2.9541846870117188 1.4104641 L 3.1083411870117184 1.4104641 M 3.8231928310546874 1.4501301 Q 3.8980173310546875 1.4897961 3.9390355810546875 1.56146535 Q 3.9800538310546876 1.6331346 3.9800538310546876 1.7268906 Q 3.9800538310546876 1.8197451 3.9390355810546875 1.8918651 Q 3.8980173310546875 1.9639851 3.8227420810546877 2.0036511 Q 3.7474668310546875 2.0433171 3.6483018310546877 2.0433171 L 3.4112073310546878 2.0433171 L 3.4112073310546878 1.4104641 L 3.6483018310546877 1.4104641 Q 3.7483683310546874 1.4104641 3.8231928310546874 1.4501301 M 3.7745118310546877 1.8621155999999999 Q 3.8231928310546874 1.8143360999999998 3.8231928310546874 1.7268906 Q 3.8231928310546874 1.6394450999999999 3.7745118310546877 1.5907641 Q 3.7258308310546875 1.5420831 3.6383853310546876 1.5420831 L 3.565363831054688 1.5420831 L 3.565363831054688 1.9098951 L 3.6383853310546876 1.9098951 Q 3.7258308310546875 1.9098951 3.7745118310546877 1.8621155999999999 M 4.220745087158203 1.4104641 L 4.220745087158203 2.0433171 L 4.066588587158203 2.0433171 L 4.066588587158203 1.4104641 L 4.220745087158203 1.4104641 M 4.437089680664062 2.0270900999999997 Q 4.382098180664062 2.0045526 4.349193430664062 1.9603791 Q 4.316288680664063 1.9162055999999998 4.314485680664062 1.8540021 L 4.4785586806640625 1.8540021 Q 4.482164680664063 1.8891605999999999 4.502899180664063 1.90764135 Q 4.523633680664062 1.9261221 4.556989180664063 1.9261221 Q 4.591246180664062 1.9261221 4.6110791806640625 1.91034585 Q 4.630912180664063 1.8945695999999999 4.630912180664063 1.8666231 Q 4.630912180664063 1.8431841 4.615135930664063 1.8278586 Q 4.599359680664063 1.8125331 4.576371430664063 1.8026166 Q 4.553383180664063 1.7927000999999998 4.511012680664063 1.7800791 Q 4.4497106806640625 1.7611476 4.410946180664062 1.7422160999999998 Q 4.372181680664062 1.7232846 4.344235180664063 1.6863230999999999 Q 4.316288680664063 1.6493616 4.316288680664063 1.5898626 Q 4.316288680664063 1.5015155999999998 4.380295180664063 1.45148235 Q 4.444301680664062 1.4014490999999998 4.547072680664063 1.4014490999999998 Q 4.651646680664062 1.4014490999999998 4.715653180664063 1.45148235 Q 4.7796596806640625 1.5015155999999998 4.784167180664062 1.5907641 L 4.617389680664062 1.5907641 Q 4.615586680664062 1.5601131 4.594852180664063 1.5425338499999999 Q 4.574117680664062 1.5249546 4.541663680664063 1.5249546 Q 4.513717180664063 1.5249546 4.496588680664063 1.5398293499999998 Q 4.479460180664063 1.5547041 4.479460180664063 1.5826506 Q 4.479460180664063 1.6133015999999998 4.508308180664063 1.6304300999999999 Q 4.537156180664063 1.6475586 4.598458180664062 1.6673916 Q 4.659760180664063 1.6881260999999999 4.698073930664062 1.7070576 Q 4.736387680664063 1.7259890999999998 4.764334180664062 1.7620491 Q 4.792280680664063 1.7981091 4.792280680664063 1.8549035999999999 Q 4.792280680664063 1.9089935999999998 4.764784930664063 1.9531671 Q 4.737289180664063 1.9973405999999998 4.685002180664062 2.0234840999999997 Q 4.6327151806640625 2.0496276 4.561496680664063 2.0496276 Q 4.492081180664062 2.0496276 4.437089680664062 2.0270900999999997 M 5.342186876953125 1.4104641 L 5.342186876953125 1.5339695999999998 L 5.1745078769531245 1.5339695999999998 L 5.1745078769531245 2.0433171 L 5.0203513769531245 2.0433171 L 5.0203513769531245 1.5339695999999998 L 4.852672376953125 1.5339695999999998 L 4.852672376953125 1.4104641 L 5.342186876953125 1.4104641 M 5.742455958251953 2.0433171 L 5.610836958251952 1.8044196 L 5.573875458251953 1.8044196 L 5.573875458251953 2.0433171 L 5.419718958251953 2.0433171 L 5.419718958251953 1.4104641 L 5.6784494582519525 1.4104641 Q 5.7532739582519525 1.4104641 5.806011708251953 1.4366075999999999 Q 5.858749458251952 1.4627510999999997 5.884892958251953 1.50827685 Q 5.911036458251953 1.5538026 5.911036458251953 1.6096955999999998 Q 5.911036458251953 1.6728006 5.875427208251953 1.7223830999999998 Q 5.8398179582519525 1.7719656 5.770402458251953 1.7927000999999998 L 5.916445458251952 2.0433171 L 5.742455958251953 2.0433171 M 5.573875458251953 1.6953380999999998 L 5.669434458251953 1.6953380999999998 Q 5.711804958251952 1.6953380999999998 5.732990208251953 1.6746036 Q 5.754175458251953 1.6538690999999999 5.754175458251953 1.6160061 Q 5.754175458251953 1.5799461 5.732990208251953 1.5592115999999998 Q 5.711804958251952 1.5384771 5.669434458251953 1.5384771 L 5.573875458251953 1.5384771 L 5.573875458251953 1.6953380999999998 M 6.161633209716797 1.4104641 L 6.161633209716797 2.0433171 L 6.007476709716797 2.0433171 L 6.007476709716797 1.4104641 L 6.161633209716797 1.4104641 M 6.744888303222656 1.77331785 Q 6.778243803222656 1.8161391 6.778243803222656 1.8711305999999999 Q 6.778243803222656 1.9504625999999998 6.722801553222657 1.9968898499999999 Q 6.667359303222656 2.0433171 6.568194303222656 2.0433171 L 6.2734038032226564 2.0433171 L 6.2734038032226564 1.4104641 L 6.558277803222656 1.4104641 Q 6.654738303222656 1.4104641 6.709279053222656 1.4546375999999999 Q 6.763819803222656 1.4988111 6.763819803222656 1.5745371 Q 6.763819803222656 1.6304300999999999 6.7345210532226565 1.6673916 Q 6.705222303222656 1.7043530999999998 6.656541303222657 1.7187770999999998 Q 6.711532803222656 1.7304966 6.744888303222656 1.77331785 M 6.4275603032226565 1.6664900999999999 L 6.528528303222656 1.6664900999999999 Q 6.566391303222656 1.6664900999999999 6.586675053222656 1.64981235 Q 6.606958803222656 1.6331346 6.606958803222656 1.6006806 Q 6.606958803222656 1.5682266 6.586675053222656 1.5510981 Q 6.566391303222656 1.5339695999999998 6.528528303222656 1.5339695999999998 L 6.4275603032226565 1.5339695999999998 L 6.4275603032226565 1.6664900999999999 M 6.601099053222656 1.90133085 Q 6.622284303222656 1.8837515999999999 6.622284303222656 1.8503961 Q 6.622284303222656 1.8170406 6.600197553222657 1.7981091 Q 6.578110803222656 1.7791776 6.539346303222656 1.7791776 L 6.4275603032226565 1.7791776 L 6.4275603032226565 1.9189101 L 6.541149303222657 1.9189101 Q 6.579913803222656 1.9189101 6.601099053222656 1.90133085 M 7.0189412219238285 1.4104641 L 7.0189412219238285 1.7890940999999998 Q 7.0189412219238285 1.8458885999999999 7.046887721923828 1.8765395999999999 Q 7.074834221923829 1.9071905999999998 7.128924221923828 1.9071905999999998 Q 7.183014221923829 1.9071905999999998 7.211862221923829 1.8765395999999999 Q 7.240710221923829 1.8458885999999999 7.240710221923829 1.7890940999999998 L 7.240710221923829 1.4104641 L 7.394866721923829 1.4104641 L 7.394866721923829 1.7881926 Q 7.394866721923829 1.8729335999999999 7.358806721923829 1.9315311 Q 7.322746721923829 1.9901285999999998 7.261895471923828 2.0198780999999997 Q 7.201044221923828 2.0496276 7.126219721923828 2.0496276 Q 7.051395221923828 2.0496276 6.992346971923828 2.02032885 Q 6.933298721923828 1.9910301 6.899041721923829 1.93198185 Q 6.8647847219238285 1.8729335999999999 6.8647847219238285 1.7881926 L 6.8647847219238285 1.4104641 L 7.0189412219238285 1.4104641 M 7.5174861284179695 1.5587608499999999 Q 7.558053628417969 1.4852886 7.630624378417969 1.44427035 Q 7.70319512841797 1.4032521 7.795148128417969 1.4032521 Q 7.90783562841797 1.4032521 7.988069128417969 1.4627510999999997 Q 8.06830262841797 1.5222501 8.095347628417969 1.6250210999999999 L 7.925865628417969 1.6250210999999999 Q 7.906934128417969 1.5853551 7.872226378417969 1.5646206 Q 7.837518628417969 1.5438861 7.793345128417969 1.5438861 Q 7.7221266284179695 1.5438861 7.677953128417969 1.5934686 Q 7.633779628417969 1.6430510999999999 7.633779628417969 1.7259890999999998 Q 7.633779628417969 1.8089271 7.677953128417969 1.8585095999999999 Q 7.7221266284179695 1.9080921 7.793345128417969 1.9080921 Q 7.837518628417969 1.9080921 7.872226378417969 1.8873575999999999 Q 7.906934128417969 1.8666231 7.925865628417969 1.8269571 L 8.095347628417969 1.8269571 Q 8.06830262841797 1.9297281 7.988069128417969 1.98877635 Q 7.90783562841797 2.0478245999999998 7.795148128417969 2.0478245999999998 Q 7.70319512841797 2.0478245999999998 7.630624378417969 2.0068063499999997 Q 7.558053628417969 1.9657881 7.5174861284179695 1.8927665999999999 Q 7.47691862841797 1.8197451 7.47691862841797 1.7259890999999998 Q 7.47691862841797 1.6322330999999999 7.5174861284179695 1.5587608499999999 M 8.344183197509766 1.4104641 L 8.344183197509766 2.0433171 L 8.190026697509765 2.0433171 L 8.190026697509765 1.4104641 L 8.344183197509766 1.4104641 M 8.852613791015624 1.4104641 L 8.852613791015624 1.8413811 Q 8.852613791015624 1.9414475999999998 8.796270041015624 1.9955375999999998 Q 8.739926291015625 2.0496276 8.644367291015625 2.0496276 Q 8.544300791015624 2.0496276 8.483900291015624 1.9928331 Q 8.423499791015624 1.9360385999999998 8.423499791015624 1.8314645999999999 L 8.576754791015624 1.8314645999999999 Q 8.576754791015624 1.8711305999999999 8.592981791015625 1.8914143499999998 Q 8.609208791015625 1.9116981 8.639859791015624 1.9116981 Q 8.667806291015625 1.9116981 8.683131791015624 1.8936681 Q 8.698457291015625 1.8756381 8.698457291015625 1.8413811 L 8.698457291015625 1.4104641 L 8.852613791015624 1.4104641 M 9.370978932128905 1.9315311 L 9.134785932128905 1.9315311 L 9.096922932128905 2.0433171 L 8.935554432128905 2.0433171 L 9.164535432128904 1.4104641 L 9.343032432128904 1.4104641 L 9.572013432128905 2.0433171 L 9.408841932128905 2.0433171 L 9.370978932128905 1.9315311 M 9.331312932128904 1.8125331 L 9.252882432128905 1.5808475999999998 L 9.175353432128905 1.8125331 L 9.331312932128904 1.8125331 M 9.846948042480467 1.5587608499999999 Q 9.887515542480466 1.4852886 9.960086292480467 1.44427035 Q 10.032657042480468 1.4032521 10.124610042480468 1.4032521 Q 10.237297542480468 1.4032521 10.317531042480468 1.4627510999999997 Q 10.397764542480466 1.5222501 10.424809542480467 1.6250210999999999 L 10.255327542480467 1.6250210999999999 Q 10.236396042480468 1.5853551 10.201688292480467 1.5646206 Q 10.166980542480466 1.5438861 10.122807042480467 1.5438861 Q 10.051588542480467 1.5438861 10.007415042480467 1.5934686 Q 9.963241542480468 1.6430510999999999 9.963241542480468 1.7259890999999998 Q 9.963241542480468 1.8089271 10.007415042480467 1.8585095999999999 Q 10.051588542480467 1.9080921 10.122807042480467 1.9080921 Q 10.166980542480466 1.9080921 10.201688292480467 1.8873575999999999 Q 10.236396042480468 1.8666231 10.255327542480467 1.8269571 L 10.424809542480467 1.8269571 Q 10.397764542480466 1.9297281 10.317531042480468 1.98877635 Q 10.237297542480468 2.0478245999999998 10.124610042480468 2.0478245999999998 Q 10.032657042480468 2.0478245999999998 9.960086292480467 2.0068063499999997 Q 9.887515542480466 1.9657881 9.846948042480467 1.8927665999999999 Q 9.806380542480467 1.8197451 9.806380542480467 1.7259890999999998 Q 9.806380542480467 1.6322330999999999 9.846948042480467 1.5587608499999999 M 10.227381042480467 1.2797466 L 10.010119542480467 1.3707981 L 10.010119542480467 1.2644210999999999 L 10.227381042480467 1.1598471 L 10.227381042480467 1.2797466 M 10.670940611572265 1.4104641 L 10.670940611572265 1.7890940999999998 Q 10.670940611572265 1.8458885999999999 10.698887111572265 1.8765395999999999 Q 10.726833611572264 1.9071905999999998 10.780923611572264 1.9071905999999998 Q 10.835013611572265 1.9071905999999998 10.863861611572265 1.8765395999999999 Q 10.892709611572265 1.8458885999999999 10.892709611572265 1.7890940999999998 L 10.892709611572265 1.4104641 L 11.046866111572264 1.4104641 L 11.046866111572264 1.7881926 Q 11.046866111572264 1.8729335999999999 11.010806111572265 1.9315311 Q 10.974746111572264 1.9901285999999998 10.913894861572265 2.0198780999999997 Q 10.853043611572264 2.0496276 10.778219111572264 2.0496276 Q 10.703394611572264 2.0496276 10.644346361572264 2.02032885 Q 10.585298111572264 1.9910301 10.551041111572264 1.93198185 Q 10.516784111572264 1.8729335999999999 10.516784111572264 1.7881926 L 10.516784111572264 1.4104641 L 10.670940611572265 1.4104641 M 11.871754018066405 1.4104641 L 11.871754018066405 2.0433171 L 11.717597518066405 2.0433171 L 11.717597518066405 1.6637856 L 11.576062018066404 2.0433171 L 11.451655018066404 2.0433171 L 11.309218018066405 1.6628840999999999 L 11.309218018066405 2.0433171 L 11.155061518066404 2.0433171 L 11.155061518066404 1.4104641 L 11.337164518066405 1.4104641 L 11.514760018066404 1.8485931 L 11.690552518066404 1.4104641 L 11.871754018066405 1.4104641 M 12.134117369384764 1.4104641 L 12.134117369384764 1.7890940999999998 Q 12.134117369384764 1.8458885999999999 12.162063869384765 1.8765395999999999 Q 12.190010369384764 1.9071905999999998 12.244100369384764 1.9071905999999998 Q 12.298190369384765 1.9071905999999998 12.327038369384764 1.8765395999999999 Q 12.355886369384764 1.8458885999999999 12.355886369384764 1.7890940999999998 L 12.355886369384764 1.4104641 L 12.510042869384764 1.4104641 L 12.510042869384764 1.7881926 Q 12.510042869384764 1.8729335999999999 12.473982869384765 1.9315311 Q 12.437922869384764 1.9901285999999998 12.377071619384765 2.0198780999999997 Q 12.316220369384764 2.0496276 12.241395869384764 2.0496276 Q 12.166571369384764 2.0496276 12.107523119384764 2.02032885 Q 12.048474869384764 1.9910301 12.014217869384764 1.93198185 Q 11.979960869384763 1.8729335999999999 11.979960869384763 1.7881926 L 11.979960869384763 1.4104641 L 12.134117369384764 1.4104641 M 12.940975275878904 2.0433171 L 12.809356275878905 1.8044196 L 12.772394775878904 1.8044196 L 12.772394775878904 2.0433171 L 12.618238275878904 2.0433171 L 12.618238275878904 1.4104641 L 12.876968775878904 1.4104641 Q 12.951793275878904 1.4104641 13.004531025878904 1.4366075999999999 Q 13.057268775878905 1.4627510999999997 13.083412275878905 1.50827685 Q 13.109555775878905 1.5538026 13.109555775878905 1.6096955999999998 Q 13.109555775878905 1.6728006 13.073946525878904 1.7223830999999998 Q 13.038337275878904 1.7719656 12.968921775878904 1.7927000999999998 L 13.114964775878905 2.0433171 L 12.940975275878904 2.0433171 M 12.772394775878904 1.6953380999999998 L 12.867953775878904 1.6953380999999998 Q 12.910324275878905 1.6953380999999998 12.931509525878905 1.6746036 Q 12.952694775878903 1.6538690999999999 12.952694775878903 1.6160061 Q 12.952694775878903 1.5799461 12.931509525878905 1.5592115999999998 Q 12.910324275878905 1.5384771 12.867953775878904 1.5384771 L 12.772394775878904 1.5384771 L 12.772394775878904 1.6953380999999998 M 13.599951527343748 1.9315311 L 13.363758527343748 1.9315311 L 13.325895527343748 2.0433171 L 13.164527027343748 2.0433171 L 13.393508027343747 1.4104641 L 13.572005027343748 1.4104641 L 13.800986027343749 2.0433171 L 13.637814527343748 2.0433171 L 13.599951527343748 1.9315311 M 13.560285527343748 1.8125331 L 13.481855027343748 1.5808475999999998 L 13.404326027343748 1.8125331 L 13.560285527343748 1.8125331 M 14.166070637695311 2.0270900999999997 Q 14.111079137695311 2.0045526 14.078174387695311 1.9603791 Q 14.045269637695311 1.9162055999999998 14.04346663769531 1.8540021 L 14.20753963769531 1.8540021 Q 14.21114563769531 1.8891605999999999 14.23188013769531 1.90764135 Q 14.252614637695311 1.9261221 14.28597013769531 1.9261221 Q 14.32022713769531 1.9261221 14.34006013769531 1.91034585 Q 14.35989313769531 1.8945695999999999 14.35989313769531 1.8666231 Q 14.35989313769531 1.8431841 14.34411688769531 1.8278586 Q 14.32834063769531 1.8125331 14.305352387695311 1.8026166 Q 14.28236413769531 1.7927000999999998 14.23999363769531 1.7800791 Q 14.17869163769531 1.7611476 14.139927137695311 1.7422160999999998 Q 14.10116263769531 1.7232846 14.07321613769531 1.6863230999999999 Q 14.045269637695311 1.6493616 14.045269637695311 1.5898626 Q 14.045269637695311 1.5015155999999998 14.10927613769531 1.45148235 Q 14.17328263769531 1.4014490999999998 14.27605363769531 1.4014490999999998 Q 14.38062763769531 1.4014490999999998 14.44463413769531 1.45148235 Q 14.508640637695311 1.5015155999999998 14.51314813769531 1.5907641 L 14.34637063769531 1.5907641 Q 14.344567637695311 1.5601131 14.32383313769531 1.5425338499999999 Q 14.30309863769531 1.5249546 14.27064463769531 1.5249546 Q 14.24269813769531 1.5249546 14.22556963769531 1.5398293499999998 Q 14.20844113769531 1.5547041 14.20844113769531 1.5826506 Q 14.20844113769531 1.6133015999999998 14.23728913769531 1.6304300999999999 Q 14.26613713769531 1.6475586 14.327439137695311 1.6673916 Q 14.38874113769531 1.6881260999999999 14.427054887695311 1.7070576 Q 14.46536863769531 1.7259890999999998 14.49331513769531 1.7620491 Q 14.52126163769531 1.7981091 14.52126163769531 1.8549035999999999 Q 14.52126163769531 1.9089935999999998 14.49376588769531 1.9531671 Q 14.466270137695311 1.9973405999999998 14.413983137695311 2.0234840999999997 Q 14.361696137695311 2.0496276 14.29047763769531 2.0496276 Q 14.221062137695311 2.0496276 14.166070637695311 2.0270900999999997 M 14.42119513769531 1.2995796 L 14.281462637695311 1.3707981 L 14.14173013769531 1.2995796 L 14.14173013769531 1.1932025999999998 L 14.281462637695311 1.2716330999999998 L 14.42119513769531 1.1932025999999998 L 14.42119513769531 1.2995796 M 14.770066833984373 1.4104641 L 14.770066833984373 2.0433171 L 14.615910333984372 2.0433171 L 14.615910333984372 1.4104641 L 14.770066833984373 1.4104641 M 15.20457442749023 2.0433171 L 15.072955427490232 1.8044196 L 15.035993927490232 1.8044196 L 15.035993927490232 2.0433171 L 14.88183742749023 2.0433171 L 14.88183742749023 1.4104641 L 15.140567927490231 1.4104641 Q 15.215392427490231 1.4104641 15.268130177490232 1.4366075999999999 Q 15.320867927490232 1.4627510999999997 15.347011427490232 1.50827685 Q 15.373154927490232 1.5538026 15.373154927490232 1.6096955999999998 Q 15.373154927490232 1.6728006 15.337545677490231 1.7223830999999998 Q 15.301936427490231 1.7719656 15.232520927490231 1.7927000999999998 L 15.378563927490232 2.0433171 L 15.20457442749023 2.0433171 M 15.035993927490232 1.6953380999999998 L 15.131552927490231 1.6953380999999998 Q 15.173923427490232 1.6953380999999998 15.195108677490232 1.6746036 Q 15.21629392749023 1.6538690999999999 15.21629392749023 1.6160061 Q 15.21629392749023 1.5799461 15.195108677490232 1.5592115999999998 Q 15.173923427490232 1.5384771 15.131552927490231 1.5384771 L 15.035993927490232 1.5384771 L 15.035993927490232 1.6953380999999998 M 15.605270928955076 2.0081586 Q 15.530897178955076 1.9666895999999998 15.487174428955075 1.89231585 Q 15.443451678955075 1.8179420999999998 15.443451678955075 1.7250876 Q 15.443451678955075 1.6322330999999999 15.487174428955075 1.5583101 Q 15.530897178955076 1.4843871 15.605270928955076 1.4429181 Q 15.679644678955075 1.4014490999999998 15.768893178955075 1.4014490999999998 Q 15.858141678955075 1.4014490999999998 15.932515428955075 1.4429181 Q 16.006889178955074 1.4843871 16.049710428955077 1.5583101 Q 16.092531678955076 1.6322330999999999 16.092531678955076 1.7250876 Q 16.092531678955076 1.8179420999999998 16.049259678955075 1.89231585 Q 16.005987678955076 1.9666895999999998 15.932064678955076 2.0081586 Q 15.858141678955075 2.0496276 15.768893178955075 2.0496276 Q 15.679644678955075 2.0496276 15.605270928955076 2.0081586 M 15.890144928955076 1.8585095999999999 Q 15.935670678955075 1.8080256 15.935670678955075 1.7250876 Q 15.935670678955075 1.6412480999999999 15.890144928955076 1.5912148499999998 Q 15.844619178955075 1.5411815999999998 15.768893178955075 1.5411815999999998 Q 15.692265678955076 1.5411815999999998 15.646739928955075 1.5907641 Q 15.601214178955075 1.6403466 15.601214178955075 1.7250876 Q 15.601214178955075 1.8089271 15.646739928955075 1.8589603499999998 Q 15.692265678955076 1.9089935999999998 15.768893178955075 1.9089935999999998 Q 15.844619178955075 1.9089935999999998 15.890144928955076 1.8585095999999999 M 16.894876363037106 1.4104641 L 16.894876363037106 2.0433171 L 16.740719863037107 2.0433171 L 16.740719863037107 1.6637856 L 16.599184363037107 2.0433171 L 16.47477736303711 2.0433171 L 16.33234036303711 1.6628840999999999 L 16.33234036303711 2.0433171 L 16.17818386303711 2.0433171 L 16.17818386303711 1.4104641 L 16.360286863037107 1.4104641 L 16.53788236303711 1.8485931 L 16.71367486303711 1.4104641 L 16.894876363037106 1.4104641 M 17.360956264892575 1.9171071 L 17.633209264892574 1.9171071 L 17.633209264892574 2.0433171 L 17.186065264892576 2.0433171 L 17.186065264892576 1.9261221 L 17.456515264892577 1.5366741 L 17.186065264892576 1.5366741 L 17.186065264892576 1.4104641 L 17.633209264892574 1.4104641 L 17.633209264892574 1.5276591 L 17.360956264892575 1.9171071 M 17.888341248046874 1.5339695999999998 L 17.888341248046874 1.6619826 L 18.094784748046873 1.6619826 L 18.094784748046873 1.7809806 L 17.888341248046874 1.7809806 L 17.888341248046874 1.9198115999999998 L 18.121829748046874 1.9198115999999998 L 18.121829748046874 2.0433171 L 17.734184748046875 2.0433171 L 17.734184748046875 1.4104641 L 18.121829748046874 1.4104641 L 18.121829748046874 1.5339695999999998 L 17.888341248046874 1.5339695999999998 M 18.938602833984376 1.4104641 L 18.938602833984376 2.0433171 L 18.784446333984373 2.0433171 L 18.784446333984373 1.6637856 L 18.642910833984374 2.0433171 L 18.518503833984376 2.0433171 L 18.376066833984375 1.6628840999999999 L 18.376066833984375 2.0433171 L 18.221910333984376 2.0433171 L 18.221910333984376 1.4104641 L 18.404013333984373 1.4104641 L 18.581608833984376 1.8485931 L 18.757401333984376 1.4104641 L 18.938602833984376 1.4104641 M 19.203670685302733 1.9243191 L 19.405606685302732 1.9243191 L 19.405606685302732 2.0433171 L 19.049514185302733 2.0433171 L 19.049514185302733 1.4104641 L 19.203670685302733 1.4104641 L 19.203670685302733 1.9243191 M 19.876180441406248 1.4104641 L 19.876180441406248 1.8413811 Q 19.876180441406248 1.9414475999999998 19.819836691406245 1.9955375999999998 Q 19.763492941406245 2.0496276 19.667933941406247 2.0496276 Q 19.567867441406246 2.0496276 19.507466941406246 1.9928331 Q 19.447066441406246 1.9360385999999998 19.447066441406246 1.8314645999999999 L 19.600321441406248 1.8314645999999999 Q 19.600321441406248 1.8711305999999999 19.616548441406245 1.8914143499999998 Q 19.632775441406245 1.9116981 19.663426441406248 1.9116981 Q 19.691372941406247 1.9116981 19.706698441406246 1.8936681 Q 19.722023941406245 1.8756381 19.722023941406245 1.8413811 L 19.722023941406245 1.4104641 L 19.876180441406248 1.4104641 M 20.15474658251953 1.5339695999999998 L 20.15474658251953 1.6619826 L 20.361190082519528 1.6619826 L 20.361190082519528 1.7809806 L 20.15474658251953 1.7809806 L 20.15474658251953 1.9198115999999998 L 20.38823508251953 1.9198115999999998 L 20.38823508251953 2.0433171 L 20.00059008251953 2.0433171 L 20.00059008251953 1.4104641 L 20.38823508251953 1.4104641 L 20.38823508251953 1.5339695999999998 L 20.15474658251953 1.5339695999999998" fill="#ebebeb" fill-rule="nonzero"></path></g><g clip-path="url(#SvgjsClipPath1001)"><g clip-path="url(#SvgjsClipPath100003a3c5dd-4420-43ec-b70c-ebc96f108162)"><path d=" M 9.44540029404326 -4.15765779672966 C 9.55479528974149 -4.296853169846116 9.650956252017563 -4.4765123142173575 9.454921181397326 -4.596856330372765 C 9.612396658233592 -4.532685549606358 9.68180392704474 -4.438619182548177 9.673901590540865 -4.31827516639277 C 9.660523196344174 -4.251015135521018 9.65585137008943 -4.182313690528283 9.660001095003931 -4.113861714900951 C 9.680661420562256 -4.024555791519811 9.771490685920051 -4.017700752624881 9.855655330130004 -4.0897738698951684 C 9.893663059605444 -4.123284058519406 9.92561282395273 -4.163092434258566 9.950102532682347 -4.207452037591434 C 10.082633284650957 -4.517071294345687 9.863462457760338 -4.566865535207453 10.296281996876218 -4.788226166189514 C 10.499457733012003 -4.891908629475302 10.7209135728676 -4.984356445683289 10.644080011920277 -5.25931967246874 C 10.718975788465684 -5.178526184202472 10.735546931721816 -5.059601626293207 10.685591080784013 -4.961411107159987 C 10.652172766171237 -4.899049294990849 10.546681334288175 -4.819930721078554 10.587240314416501 -4.758997042012528 C 10.627275882652475 -4.721929180181796 10.687648858496452 -4.717540574865046 10.7326242643131 -4.74842885704952 C 10.799732367373695 -4.783511823037993 10.860646057386433 -4.829341816843778 10.912949870799128 -4.884101501844972 C 10.99863785698573 -4.966266759710564 11.085658767401899 -4.997685687978982 11.131930279942667 -5.10574775944764 C 11.176392823886161 -5.210477520342381 11.124408778932953 -5.259795716836444 11.21219136033745 -5.372332605361514 C 11.254654517936588 -5.426601663279697 11.293785364961803 -5.482013227680365 11.183628698275248 -5.555609686927301 C 11.289881801146635 -5.5074339969157275 11.308447531487065 -5.453164938997542 11.296070377926778 -5.376236169176681 C 11.288548876917064 -5.329774238888835 11.242848617617545 -5.233422858865681 11.342151472720463 -5.227900744200322 C 11.489820435582038 -5.220379243190607 11.529332118101419 -5.466875016787398 11.501055082659839 -5.550754034376732 C 11.451165632924528 -5.698994250479552 11.436598675272807 -5.758595005316007 11.527237522883524 -5.907406474660074 C 11.621113472194622 -6.061644849795956 11.757452579104863 -6.190938500064186 11.659673065978595 -6.4579041814722205 C 11.798773230221514 -6.2411135764201155 11.712990035161368 -6.092302107076053 11.6550078311751 -5.935017047986868 C 11.60946977666065 -5.8470558833022706 11.605422448907738 -5.743395445768658 11.643963601844382 -5.652151484697542 C 11.685665088455192 -5.575508341497303 11.764117200252706 -5.55779949101874 11.815339574217585 -5.606451225398021 C 11.86715318778861 -5.674518133402738 11.878081093871913 -5.765292606601359 11.843902236279789 -5.843711738261362 C 11.812102472517205 -5.963103665681366 11.773733296480314 -6.077068687309547 11.936445261361317 -6.199412089809304 C 11.805152224748737 -6.041460568605337 11.927876462742656 -5.8587547402807925 11.991285572520745 -5.670907632785053 C 12.061814940415424 -5.521781100812671 12.020682263595193 -5.343736496836972 11.891887508544283 -5.240658733254771 C 11.80991266842577 -5.159826399618744 11.608926736381417 -5.019298102272717 11.653865324692614 -4.916948563216501 C 11.670050833194523 -4.87953147591502 11.719273820815053 -4.866011815872242 11.785063152431654 -4.891813420601762 C 11.872084062847822 -4.9259934062028625 11.906359257322464 -5.014156823101526 12.017658430491508 -5.0148232852163055 C 11.850566857427633 -4.897430744140661 11.847996217842034 -4.786893241959943 11.816291662952993 -4.67264259371114 C 11.773923714227397 -4.520308396046069 11.74764606513017 -4.540016632868994 11.614924895414477 -4.436905422824445 C 11.568939009494335 -4.401106886373157 11.514098698334909 -4.323797281058132 11.581601789675243 -4.291521472927846 C 11.651580311727637 -4.258007949441535 11.712133155299503 -4.338459447583395 11.777256024801318 -4.346361784087275 C 11.740251093886227 -4.315017709685694 11.709970219649307 -4.276510801164093 11.688235728040793 -4.233158433447418 C 11.668423252104732 -4.1973755500654075 11.657179659866404 -4.157485240211178 11.655388666669264 -4.116622772233638 C 11.652908897292853 -4.087002177987389 11.665505540784757 -4.058122941345433 11.688902190155574 -4.039789211286321 C 11.708479886858356 -4.0265771628608995 11.73428037728345 -4.0272269529901195 11.753168179795532 -4.041407762136506 C 11.777065607054238 -4.058259732753211 11.786110450040603 -4.090916376377658 11.799154065715674 -4.113290461659714 C 11.8370471727332 -4.1775209180237995 11.897066017786731 -4.2257255628947625 11.967959398503279 -4.248867897581624 C 11.8703269475333 -4.160063765350968 11.8456034983944 -4.016236081074652 11.907977808172657 -3.899927376055073 L 9.312774333201109 -3.899927376055073 C 9.337782217427398 -3.99443398546437 9.383035746667396 -4.082374619816614 9.445400294043264 -4.15765779672966 Z" fill="#ebebeb" transform="matrix(1,0,0,1,0,0)" fill-rule="evenodd"></path></g><g clip-path="url(#SvgjsClipPath100003a3c5dd-4420-43ec-b70c-ebc96f108162)"><path d=" M 8.316318262724472 -3.8047185025144037 L 12.116009196859018 -3.8047185025144037 C 11.826479012421844 -1.7528720688394568 8.605943656035187 -1.7528720688394568 8.316318262724472 -3.8047185025144037 Z" fill="#ebebeb" transform="matrix(1,0,0,1,0,0)" fill-rule="evenodd"></path></g><g clip-path="url(#SvgjsClipPath100003a3c5dd-4420-43ec-b70c-ebc96f108162)"><path d=" M 10.947701109641471 -2.705436848613843 L 11.605689634681031 -0.25 L 11.311303797693284 -0.25 L 10.673118718350183 -2.6320308071139875 L 10.947701109641471 -2.705436848613843 Z" fill="#ebebeb" transform="matrix(1,0,0,1,0,0)" fill-rule="evenodd"></path></g><g clip-path="url(#SvgjsClipPath100003a3c5dd-4420-43ec-b70c-ebc96f108162)"><path d=" M 9.759303950106846 -2.6320308071139875 L 9.261932794730393 -0.7754577730709507 L 8.967546957742645 -0.7754577730709507 L 9.484626349942017 -2.705436848613843 L 9.759303950106846 -2.6320308071139875 Z" fill="#ebebeb" transform="matrix(1,0,0,1,0,0)" fill-rule="evenodd"></path></g><g clip-path="url(#SvgjsClipPath100003a3c5dd-4420-43ec-b70c-ebc96f108162)"><path d=" M 9.067706692707429 -0.24990479112646025 C 8.934005546246294 -0.24990479112646025 8.813469475652626 -0.3304444185958806 8.76230426201373 -0.45396817128462175 C 8.711139048374832 -0.5774919239733629 8.739420804531331 -0.7196739136055905 8.83396179184642 -0.8142149009206783 C 8.928502779161507 -0.9087558882357616 9.070684768793733 -0.937037644392257 9.194208521482473 -0.8858724307533583 C 9.317732274171215 -0.8347072171144632 9.398271901640634 -0.7141711465207985 9.398271901640634 -0.5804700000596608 C 9.398219348204037 -0.3979256491190064 9.250251043648369 -0.24995734456321017 9.067706692707572 -0.24990479112646025 Z M 9.067706692707429 -0.4403225382077993 C 9.124523884764084 -0.4402840311175735 9.17576611697126 -0.4744853334661867 9.197526906747305 -0.5269702153305973 C 9.21928769652335 -0.579455097195015 9.207278889508657 -0.6398809525716604 9.167103058490502 -0.6800567835898121 C 9.126927227472343 -0.720232614607971 9.0665013720957 -0.7322414216226676 9.014016490231285 -0.7104806318466217 C 8.961531608366867 -0.6887198420705767 8.92733030601826 -0.6374776098633985 8.927368813108485 -0.5806604178067429 C 8.927318266384855 -0.5434075167991645 8.942081504554759 -0.5076630896869903 8.96840544282502 -0.4813034337257207 C 8.99472938109528 -0.4549437777644556 9.030453757407603 -0.4401320861684894 9.067706692707414 -0.44013212046071715 Z" fill="#ebebeb" transform="matrix(1,0,0,1,0,0)" fill-rule="evenodd"></path></g><g clip-path="url(#SvgjsClipPath100003a3c5dd-4420-43ec-b70c-ebc96f108162)"><path d=" M 9.370851746060918 -1.6178658861587865 L 11.06138050464903 -1.6178658861587865 L 11.06138050464903 -1.4462994960385016 L 9.370851746060918 -1.4462994960385016 Z" fill="#ebebeb" transform="matrix(1,0,0,1,0,0)" fill-rule="nonzero"></path></g><g clip-path="url(#SvgjsClipPath100003a3c5dd-4420-43ec-b70c-ebc96f108162)"><path d=" M 12.048030061150978 -3.660572267973831 L 12.506270369502218 -3.660572267973831 L 12.506270369502218 -3.5338492572912004 L 12.048030061150978 -3.5338492572912004 Z" fill="#ebebeb" transform="matrix(1,0,0,1,0,0)" fill-rule="nonzero"></path></g><g clip-path="url(#SvgjsClipPath100003a3c5dd-4420-43ec-b70c-ebc96f108162)"><path d=" M 12.632231709196521 -3.5971631581957455 C 12.632231709196521 -3.527596624894944 12.575836902803019 -3.471201818501441 12.506270369502218 -3.471201818501441 C 12.436703836201415 -3.471201818501441 12.380309029807913 -3.527596624894944 12.380309029807913 -3.5971631581957455 C 12.380309029807913 -3.6667296914965464 12.436703836201415 -3.7231244978900504 12.506270369502218 -3.7231244978900504 C 12.575836902803019 -3.7231244978900504 12.632231709196521 -3.6667296914965464 12.632231709196521 -3.5971631581957455 Z" fill="#ebebeb" transform="matrix(1,0,0,1,0,0)" fill-rule="nonzero"></path></g><g clip-path="url(#SvgjsClipPath100003a3c5dd-4420-43ec-b70c-ebc96f108162)"><path d=" M 7.9260570900812715 -3.660572267973831 L 8.38439260730605 -3.660572267973831 L 8.38439260730605 -3.5338492572912004 L 7.9260570900812715 -3.5338492572912004 Z" fill="#ebebeb" transform="matrix(1,0,0,1,0,0)" fill-rule="nonzero"></path></g><g clip-path="url(#SvgjsClipPath100003a3c5dd-4420-43ec-b70c-ebc96f108162)"><path d=" M 7.9260570900812715 -3.4711066096279044 C 7.97705951243002 -3.4710681026863055 8.023059535229105 -3.5017666726515633 8.04259510933346 -3.5488794088556705 C 8.062130683437815 -3.595992145059785 8.051351872310756 -3.6502343935946233 8.01528770333222 -3.686298562573156 C 7.979223534353685 -3.722362731551689 7.924981285818845 -3.7331415426787538 7.877868549614735 -3.713605968574395 C 7.830755813410625 -3.6940703944700433 7.8000572434453685 -3.648070371670957 7.8000957503869675 -3.5970679493222066 C 7.8000957503869675 -3.527501422340788 7.856490563099851 -3.4711066096279044 7.92605709008127 -3.4711066096279044 Z" fill="#ebebeb" transform="matrix(1,0,0,1,0,0)" fill-rule="evenodd"></path></g><g clip-path="url(#SvgjsClipPath100003a3c5dd-4420-43ec-b70c-ebc96f108162)"><path d=" M 8.317651186954041 -3.916588928924689 L 11.340152086376108 -6.219215535505762 C 9.866413932840096 -7.675911300677991 7.304533563607786 -5.724224601967823 8.317651186954041 -3.916588928924689 Z" fill="#ebebeb" transform="matrix(1,0,0,1,0,0)" fill-rule="evenodd"></path></g><g clip-path="url(#SvgjsClipPath100003a3c5dd-4420-43ec-b70c-ebc96f108162)"><path d=" M 10.450044327644399 -5.710704941925048 L 11.129454849230608 -6.22826037849212 C 10.859830756345618 -6.455716790653255 10.520506727652382 -6.58408878210245 10.167845226469854 -6.59205348429102 C 10.46512072615781 -6.544575150845946 10.742923216139182 -6.414040655434712 10.96921831506166 -6.21550238943767 Z" fill="#525252" transform="matrix(1,0,0,1,0,0)" fill-rule="evenodd"></path></g><g clip-path="url(#SvgjsClipPath100003a3c5dd-4420-43ec-b70c-ebc96f108162)"><path d=" M 8.319840991045478 -4.003133794973158 L 10.138330475672248 -5.408131141812803 L 10.969123106188123 -6.215502389437674 C 9.566601190060531 -7.409040828143495 7.548839533113143 -5.66214841641931 8.319840991045478 -4.003133794973158 Z" fill="#ebebeb" transform="matrix(1,0,0,1,0,0)" fill-rule="evenodd"></path></g><g clip-path="url(#SvgjsClipPath100003a3c5dd-4420-43ec-b70c-ebc96f108162)"><path d=" M 8.364874788230214 -4.122144886898994 L 8.489503203694948 -4.21735376043966 C 8.275946076924441 -4.682901563359543 8.28181355193254 -5.219565973921668 8.505498294449781 -5.6803333112655725 C 8.188760919563544 -5.221484091324706 8.135406619760909 -4.630288105833886 8.364874788230216 -4.122144886898994 Z" fill="#525252" transform="matrix(1,0,0,1,0,0)" fill-rule="evenodd"></path></g><g clip-path="url(#SvgjsClipPath100003a3c5dd-4420-43ec-b70c-ebc96f108162)"><path d=" M 8.578618709329014 -6.450858724830205 L 8.827589913637864 -6.640610009796758 C 8.960058814082949 -6.741085142600181 9.148831710635278 -6.715546532018127 9.249841267790728 -6.583484685672358 L 9.357141668271064 -6.442575552832168 L 9.225753422784942 -6.3425110267409295 C 9.19008183149837 -6.389544210270017 9.15431503133826 -6.436513921216749 9.118453022304607 -6.483420159581116 C 9.072745148096288 -6.542696048564993 8.987869142585549 -6.554196747311701 8.92803527522327 -6.50922176431064 C 8.869112347422739 -6.419450324928313 8.781261181161446 -6.352528901145334 8.679064070914421 -6.319565688217622 C 8.619448164230258 -6.27405499324354 8.607907253827104 -6.188882222740548 8.6532624661849 -6.129147941136284 L 8.760562866665236 -5.988334017169636 L 8.629174621179114 -5.888269491078398 L 8.521874220698779 -6.029083415045045 C 8.42167154627028 -6.161623870161864 8.447181349747066 -6.350183834194447 8.57899954482318 -6.451334769197905 Z" fill="#ebebeb" transform="matrix(1,0,0,1,0,0)" fill-rule="evenodd"></path></g><g clip-path="url(#SvgjsClipPath100003a3c5dd-4420-43ec-b70c-ebc96f108162)"><path d=" M 8.478458974364228 -3.6698075287072793 C 8.570712965314542 -3.2569111924652274 8.827442790362511 -2.899531997216964 9.189288424218862 -2.6803017059991063 C 8.903978818541344 -2.941977416576984 8.711359570399926 -3.2892266526452874 8.640409268256908 -3.6698075287072793 Z" fill="#525252" transform="matrix(1,0,0,1,0,0)" fill-rule="evenodd"></path></g><g clip-path="url(#SvgjsClipPath100003a3c5dd-4420-43ec-b70c-ebc96f108162)"><path d=" M 11.539138632076105 -2.9142299082885277 C 11.746099451133325 -3.1217667230480726 11.889913932713537 -3.383775842841587 11.953868485219257 -3.6698075287072727 L 11.87294094270969 -3.6698075287072727 C 11.8198530583485 -3.396068441362252 11.705759402604876 -3.1378119519208996 11.539138632076103 -2.914229908288524 Z" fill="#525252" transform="matrix(1,0,0,1,0,0)" fill-rule="evenodd"></path></g><g clip-path="url(#SvgjsClipPath100003a3c5dd-4420-43ec-b70c-ebc96f108162)"><path d=" M 9.475867133576275 -2.1899760072646632 L 9.159012002432931 -1.0074817978895592 L 9.103219602538099 -1.0074817978895592 L 9.420074733681444 -2.1899760072646632 L 9.475867133576275 -2.1899760072646632 Z" fill="#525252" transform="matrix(1,0,0,1,0,0)" fill-rule="evenodd"></path></g><g clip-path="url(#SvgjsClipPath100003a3c5dd-4420-43ec-b70c-ebc96f108162)"><path d=" M 10.873914232647454 -2.1899760072646632 L 11.319206134197161 -0.5280099107387528 L 11.375093742965532 -0.5280099107387528 L 10.929706632542285 -2.1899760072646632 L 10.873914232647454 -2.1899760072646632 Z" fill="#525252" transform="matrix(1,0,0,1,0,0)" fill-rule="evenodd"></path></g><g clip-path="url(#SvgjsClipPath100003a3c5dd-4420-43ec-b70c-ebc96f108162)"><path d=" M 11.584267638134381 -3.143968920142164 C 11.689355970685135 -3.3035937056445492 11.76222445392979 -3.482223369630454 11.798773230221506 -3.6698075287072793 L 11.720321118423993 -3.6698075287072793 C 11.698966406955508 -3.4891803414698552 11.65319761046263 -3.312286665451543 11.58426763813438 -3.143968920142164 Z" fill="#525252" transform="matrix(1,0,0,1,0,0)" fill-rule="evenodd"></path></g></g></g><defs><clipPath id="SvgjsClipPath1001"><path d=" M 7.8000957503869675 -6.7283925912012545 h 4.832231167683094 v 6.4783925912012545 h -4.832231167683094 Z"></path></clipPath><clipPath id="SvgjsClipPath100003a3c5dd-4420-43ec-b70c-ebc96f108162"><path d=" M 7.8000957503869675 -6.7283925912012545 L 12.632326918070062 -6.7283925912012545 L 12.632326918070062 -0.25 L 7.800095750386967 -0.25 Z"></path></clipPath></defs></svg>